/* XPM */
static char * fish_xpm[] = {
"100 100 9 1",
" 	c #005AD7",
".	c #E3E6E5",
"+	c #FF31FC",
"@	c #FF607C",
"#	c #6F1E71",
"$	c #970278",
"%	c #F92ADA",
"&	c #000E0A",
"*	c #6F272B",
"                                                                                                    ",
"                                                                                                    ",
"                                                                                                    ",
"                                                                                                    ",
"                                                                                                    ",
"                                                                                                    ",
"                      ...                                                                           ",
"                      ....                                                                          ",
"                      .....                                                                         ",
"                      ......                                                                        ",
"                       ......                                                                       ",
"                        .......                                                                     ",
"                         .......                                                                    ",
"                           ......                                                                   ",
"                            .....                            .........                              ",
"                             ....                       ..............                              ",
"                                                    ....................         ....               ",
"                                                    ............   ..................               ",
"                                                    .......        ..................               ",
"                                                                     ...............                ",
"                                                                                                    ",
"                                                                                                    ",
"                                                                                                    ",
"      .......                                                                                       ",
"    .........                                                                                       ",
"    .........                                                                                       ",
"    .....                          +++++                                                            ",
"    ...                            +++++++++                                                        ",
"                                   +++++++++++++                                                    ",
"                                   +++++++++++++++++                                                ",
"                                     ++++++++++++++++++++                                           ",
"                                       ++++++++++++++++++++++                                       ",
"                                        +++++++++++++++++++++                                       ",
"                                         ++++++@@@@@@@@@@@@++                                       ",
"                                           #@@@@@@@@@@@@@@@@@@@@##                                  ",
"                                        #@@@@@@@@@@@@@@@@@@@@@@@@@@##                               ",
"                     ....              @@@@@@@@@@@@@@@@@@@@@@@@@@@@@@@#                             ",
"                     .........       @@$$$@@@@@@$$$@@@@@@@@@@@@@@@@@@@@@@@                          ",
"                     .........      @@@$$$@@@@@@$$$@@@@@@@@@@@@@@@@@@@@@@@@#                        ",
"                      ........     @@@@$$$@@@@@@$$$@@@@@@@@@@@@@@@$$$@@@@@@@@#                      ",
"                                  @@@@@@@@@@@@@@%%%@@@@@@@@@@@@@@@$$$@@@@@@@@@##                    ",
"                                 @@@@@@@@@@@@@@@%%%@@@@@@@@@@@@@@@$$$@@@@@@@@@@###                  ",
"                                @@@@@@@@@@@@@@@@%%%@@@@@@@@@@@@@@@@@@@@@@@@@@@@@###                 ",
"                               @@@@@@@%%%@@@@@@@@@@@@@@@@$$$@@@@@@@@@@@@@@@@@@@@@@###               ",
"                              #@@@@@@@%%%@@@@@@@@@@@@@@@@$$$@@@@@@@@@@@@@@@@@@@@@@@@##              ",
"                             @@@@@@@@@%%%@@@@@@@@@@@@@@@@$$$@@@@@@@@@@@@@@@@@@@@@@@@@@##            ",
"                           #@@@@@@@@@$$$@@@@@@@@@@@@@@@@@@@@@@@@@$$$@@@@@@@@@@@@@@@@@@@@#           ",
" +++                      #@@@@@@@@@@$$$@@@$$$$$@@@@@@@@@@@@@@@@@$$$@@@@@@@@@@@@@@@@@@@@@@          ",
" +++++                   @@@@@@@@@@@@$$$@@@$$$$$@@@@@@@@@@@@@@@@@$$$$$$@@@@@@@@@@@@@@@@@@@@#        ",
" ++++++                @@@@@@@@@@@@@@@@@@@@$$$$$@@@@@@@@@@@@@@@@@@@@$$$@@@@@@@@@@@@@@@@@@@@@#       ",
" +++++++              @@@@@@@@@@@@@@@@@@@@@@@@@@@@@@@@@@@@@@@@@@@@@@$$$@@@@@@@@@@@@@@@@@@@@@@#      ",
" +++++++             @@@@@@@@@@@$$$@@@@@@@@@@@@@@@@@@@@@@@@@@@@@@@@@@@@@@@@@@@@@@@@....@@@@@@@##    ",
" ++++++++          #@@@@@@@@@@@@$$$@@@@@@@@@@@@@@$$$@@@@@@@@@@@@@@@@@@@@@@@@@@@@@@@....@@@@@@@@#    ",
" +++++++++       #@@@@@@@@@@@@@@$$$@@@@@@@@@@@@@%$$$@@@@@@@@$$$@@@@@@@@@@@@@@@@@@@..&&&.@@@@@@@@#   ",
" +++++++++    ##@@@@@@@@@@@@@@@@@@@@@@@@@@@@@@@@%$$$@@@@@@@@$$$@@@@@@@@@@$$$@@@@@@..&&&.@@@@@@@@@#  ",
" #+++++++++###@@@@@@@@@@@@@@@$$$@@@@@@@@@@@@@@@@%%%@@@@@@@@@$$$@@@@@@@@@@$$$@@@@@@..&&&.@@@@@@@@@@  ",
"  ++++++++++#@@@@@@@@@@@@@@@@$$$%@@@@@@$$$@@@@@@@@@@@@@@@@@@@@@@@@@@@@@@@$$$@@@@@@@....@@@@@@@@@@@  ",
"  +++++++++@@@@$$$@@@@@@@@@@@$$$%@@@@@@$$$@@@@@@@@@@@@@@@@@@@@@@@@@@@@@@@@@@@@@@@@@....@@@@@@@@@@@  ",
"  #+++++$$$$@@@$$$$@@@@@@@@@@@%%%@@@@@@$$$@@@@@@@@@@@@@@@@$$$@@@@@@@@@@@@@@@@@@@@@@@@@@@@@@@@@@@@@  ",
"   ++++$$$$$@@@$$$$$@@@@@@@@@@@@@@@@@@@@@@%%%@@@@@@@@@@@@@$$$@@@@@@@@@@@@@@@@@@@@@@@@@@@@@@@@@@@@   ",
"   #+++$$$$$@@@$$$$$@@@@@@@@@@@@@@@@@@@@@@%%%@@@@@@@@@@@@@$$$@@@@@@@@@@@@@@@@@@@@@@@@@@@@@@@@@@@    ",
"    #++$$$$$@@@@$$$$@@@@@@@@@@@@@@@@@@@@@@%%%@@@@@@@@@@@@@@@@@@$$$$@@@@@@@@@@@@@@@@@@@@@@@@@@@      ",
"     +++++++++#@@$$$@@@@@@@@@@@@@@$$$@@@@@@@@@$$$@@@@@@@@@@@@@@$$$$@@@@@@@@@@@@@@@@@@@@@@@@@        ",
"     +++++++++####@@@@@@@@@@@@@@@@$$$@@@@@@@@@$$$@@@@@@@@@@@@@@$$$$@@@@@$$$@@@@@@@@@@@@@@@          ",
"    *++++++++##    ##@@@@@@@@@@@@@$$$@@@@@@@@@$$$@@@@@@@@@@$$$@@@@@@@@@@$$$@@@@@@@@@@@@@            ",
"   *+++++++++#       ##@@@@@@@@@@@@@@@@@@@@@@@@@@@@@@@@@@@@$$$@@@@@@@@@@$$$@@@@@@@@@@@              ",
"   ++++++++++#         ###@@@@@@@@@@@@@@@@@@@@@@@@@@@@@@@@@$$$@@@@@@@@@@@@@@@@@@@@@@                ",
"  *++++++++++            ###@@@@@@@@@@@@@@@@@@@@@@@@@@$$$@@@@@@@@@@@@@@@@@@@@@@@@@                  ",
" *++++++++++                ###@@@@@@@@@@@@@@@@@@@@@@@$$$@@@@@@@@@@@@@@@@@@@@@@@                    ",
" *+++++++++                    ##@@@@@@@@@@@@@@@@@@@@@$$$@@@@@@@@@@@@@@@@@@@@@                      ",
" +++++++++                         @@@@@@@@@@@@@@@@@@@@@@@@@@@@@@@@@@@@@@@@                         ",
" +++++++++                              @@@@@@@@@@@@@@@@@@@@@@@@@@@@@@@@                            ",
"*++++++++                                       @@@@@@@@@@@@+++####                                 ",
"*+++++++                                             ++++++++++                                     ",
"*++++++                                             +++++++++++                                     ",
" +++++                                             ++++++++++++                                     ",
" ++++                                             +++++++++++                                       ",
" +++                                              ++++++++++                                        ",
"                                                  ++++++++                                          ",
"                                                  ++++++                                            ",
"                                                  +++                                               ",
"                                                                                                    ",
"                                                                                                    ",
"                                                                                        ....        ",
"                 ....                                                                  .....        ",
"               ......                                                                 .......       ",
"               ......                                                               .........       ",
"               .....                                                               ..........       ",
"               ...           ...                                                   .....            ",
"               ....          ...                                                   ...              ",
"               .......     .....                                                   ...              ",
"               ..................       ........                                                    ",
"                 ...............................                                                    ",
"                   .............................                                                    ",
"                              .............  ...                                                    ",
"                                                                                                    ",
"                                                                                                    ",
"                                                                                                    ",
"                                                                                                    ",
"                                                                                                    "};
