/* XPM */
static char * collectible_xpm[] = {
"100 100 11 1",
" 	c #005AD7",
".	c #C6090C",
"+	c #ED8658",
"@	c #D8F6E9",
"#	c #CD7639",
"$	c #CD8868",
"%	c #E3E6E5",
"&	c #000E0A",
"*	c #CD6428",
"=	c #ED2E98",
"-	c #EDF328",
"                                                                                                    ",
"                                                                                                    ",
"                                                                                                    ",
"                                                                                                    ",
"                                                                                                    ",
"                                                                                                    ",
"                                                                                                    ",
"                                                 ..........                                         ",
"              +++                              ...............                                      ",
"              @@@                            ..................                                     ",
"              @@@                           ...................                                     ",
"              @@@                          ....................                                     ",
"                                           .......................                                  ",
"                                          ........................                                  ",
"                                          .........................                                 ",
"                                         ...........................                                ",
"                                         ...........................                                ",
"                                        .............................                               ",
"                                       ..............................                               ",
"  @@@@                                 ..............................                               ",
"  @@@@                                ...............................                               ",
"  @@@@                                ...............................                               ",
"        #@@@                         ................................                               ",
"        #@@@$$   %%%%                ......@@@@.............&&&......                               ",
"        #@@@$@@@ %%%%%               ......@@@@@...........@&&&......                @@@@@         @",
"           $$@@@%%%%%%               ......@@&&&..........@@&&&......              @@@@@@@@       @@",
"             @@@%%%%%%%              ......@@&&&..........@@@@@......              @@@@@@@@      @@@",
"             %%%%%%%%%%%             ......@@&&&..........@@@@@.......            @@@@@@@@@@@ @@@@@@",
"            %%%%%%  %%%%             ......@@@@@..........@@@@@.......            @@@@  @@@@@@@@@@@@",
"           %%%%%%    %%%%           .......@@@@@..........@@@@@.......            @@@@   @@@@@@@@@@@",
"          %%%%%%     %%%%%          .......@@@@.......................            @@@     @@@@@@@   ",
"         %%%%%%       %%%%         %..................................            @@@               ",
"         %%%%          %%%%      %%%..................................                              ",
"        %%%%%          %%%%%   %%%%%..................................                              ",
"        %%%%            %%%%%%%%%%%%..................................                              ",
"        %%%%             %%%%%%%%%% ..................................                              ",
"        %%%              %%%%%%%%   ..................................                              ",
"        %%%                %%%%     ..................................                              ",
"                                    ..................................                              ",
"                                    ..................................                              ",
"                                    ..................................                              ",
"           @@@@                     ..................................                              ",
"           @@@@                     ..................................                              ",
"           @@@@                     .................................                               ",
"           ***                      ..................................                              ",
"                                   ...................................                              ",
"                               .......................................                              ",
"                           ...........................................                              ",
"                         ...............................................                            ",
"                        .................................................                           ",
"                       ...................................................                          ",
"                    .......................................................                         ",
"                   ........................................................                         ",
"                 ...........................................................                        ",
"                 ............................................................                       ",
"               ...............................................................                      ",
"              ..............................................   ...............                      ",
"             ...............................................   ....... ........                     ",
"     ....   .....===..   ...................................    ......  ........                    ",
"     ..... ......===.   ............. ............... .......   .......  .......                    ",
"     ............===   .........++++++..............  .......   .......  ........                   ",
"     .............     .........++++++..............  .......    ......   .......                   ",
"     ........===.     ..........++++++............     ......    ......   ........                  ",
"     ........===     ............ %%%%...... .....     ......    ......    ........                 ",
"     ..===...===     ........... %%%%....... .....      .....    .......   ........                 ",
"      .===...      ........+++.  %%%.......% ......     .....    .......   .........                ",
"       ===.       .........+++.  %%.......%% ......     ......    ......   .........                ",
"                 .........++++   .........%%% ......     ......   ......   .........                ",
"                 .........+++    .........%%% ......%%%%%.......  .....    ..........               ",
"              ......+++...+++   .........%%%%%......%%%%%.......  ......   ..........               ",
"           .........+++....     ........  %%%%%......%%%%.......  ......   ..........               ",
"         ...........+++...     .........  %%%%%.......   ........ ......   ..........               ",
"         ...............       ........    %%%%.......   ........ ......    ..........              ",
"        ..........+++.         ........         .......  ...............    ..........              ",
"       ...........+++          .......           ......  ...............     ...---...              ",
"      ............+++         ........           ....... ...............     ...---....             ",
"     .........+++..           ........            ......................     ...---....             ",
"     ........===+.           ........             ......................      .........             ",
"    .........===+.          .........              .....................      .........             ",
"   .......+++===.           ......+++              ......................      .........            ",
"   .......+++...           .......+++               .....................      .........        ... ",
"  ........+++..           ........+++                .....................      .+++===.        ....",
"  ......====.             .........                   ....................       +++===..      .....",
"  ......====             .....+++..                   .....................      +++===...     .....",
" .......====            ......+++.                     .....................      ..........   .....",
" .........             .......+++.                     ............ .........      ........... ..+++",
" ........             ............                      ........... ....===...     .---+.........+++",
" .......              ...........                        .........   ...===....     ---+.........+++",
" ......               .......---.                        .........   ...===....     ---+............",
" ......              ...+++..---                       ...........    ..........       ...+++.......",
" .....               ...+++..---                       ...........     ---.......        .+++.+++.. ",
" .....        ....  ....+++..            ................... .....     ---........        +++.+++.  ",
" ......       ....  ....+++.             ...............+++. ....      ---.........           +++   ",
" ......       .............              ..............++++  ....         ..+++....    ...          ",
" .......       .....+++...               ......===.....++++  ...           .+++.....  ....          ",
"   .......     .....+++..                ......===.....+++   ---.           +---..........          ",
"    ......       ...+++.                    ...===......     ---.            ---..........          ",
"     .....       ......                      ..+++===++.     ---..           ---.++++++...          ",
"      ....                                    .+++===++      ......              ---+++...          ",
"                                               ...===++       .....              ---+++...          "};
