/* XPM */
static char * locked_exit_xpm[] = {
"100 100 3 1",
" 	c #005AD7",
".	c #460B0A",
"+	c #010B0A",
"                .....................................................................               ",
"               ......................................................................               ",
"               ......................................................................               ",
"               ......................................................................               ",
"               ......................................................................               ",
"               ......................................................................               ",
"               ......................................................................               ",
"               ......................................................................               ",
"               ......................................................................               ",
"               ......................................................................               ",
"               ......................................................................               ",
"               ......................................................................               ",
"               ......................................................................               ",
"               ......................................................................               ",
"               ......................................................................               ",
"               ......................................................................               ",
"               ......................................................................               ",
"               ......................................................................               ",
"               ......................................................................               ",
"               ......................................................................               ",
"               ......................................................................               ",
"               ......................................................................               ",
"              .......................................................................               ",
"              .......................................................................               ",
"              .......................................................................               ",
"              .......................................................................               ",
"              .......................................................................               ",
"              .......................................................................               ",
"              .......................................................................               ",
"              .......................................................................               ",
"               ......................................................................               ",
"               ......................................................................               ",
"               ......................................................................               ",
"               ......................................................................               ",
"               ......................................................................               ",
"               ......................................................................               ",
"               ......................................................................               ",
"               ......................................................................               ",
"               ......................................................................               ",
"               ......................................................................               ",
"               ......................................................................               ",
"               ......................................................................               ",
"               ......................................................................               ",
"               .........................................................++++.........               ",
"               .........................................................++++.........               ",
"               .........................................................++++.........               ",
"               .........................................................++++.........               ",
"               .........................................................++++.........               ",
"               .........................................................++++.........               ",
"               .........................................................++++.........               ",
"               .........................................................++++.........               ",
"               ..........................................................+++.........               ",
"               ......................................................................               ",
"               ......................................................................               ",
"               ......................................................................               ",
"               ......................................................................               ",
"               ......................................................................               ",
"               ......................................................................               ",
"               ......................................................................               ",
"               ......................................................................               ",
"               ......................................................................               ",
"               ......................................................................               ",
"               ......................................................................               ",
"               ......................................................................               ",
"               ......................................................................               ",
"               ......................................................................               ",
"               ......................................................................               ",
"              .......................................................................               ",
"              .......................................................................               ",
"              .......................................................................               ",
"              .......................................................................               ",
"              .......................................................................               ",
"              .......................................................................               ",
"              .......................................................................               ",
"              .......................................................................               ",
"              .......................................................................               ",
"              .......................................................................               ",
"              ........................................................................              ",
"              ........................................................................              ",
"              ........................................................................              ",
"              ........................................................................              ",
"              ........................................................................              ",
"              ........................................................................              ",
"              ........................................................................              ",
"              ........................................................................              ",
"              ........................................................................              ",
"              ........................................................................              ",
"              ........................................................................              ",
"              ........................................................................              ",
"              ........................................................................              ",
"              ........................................................................              ",
"              ........................................................................              ",
"              ........................................................................              ",
"              ........................................................................              ",
"              ........................................................................              ",
"              ........................................................................              ",
"             .........................................................................              ",
"             .........................................................................              ",
"             .........................................................................              ",
"             .........................................................................              "};
