/* XPM */
static char * dolphin_xpm[] = {
"100 100 5 1",
" 	c #005AD7",
".	c #FFFFFF",
"+	c #000000",
"@	c #878787",
"#	c #005AD7",
"                                                                                                    ",
"           ....                                                                                     ",
"         ......                                                      +++++++++++                    ",
"      ............                                              ++++++++++++++++++++                ",
"      ............                                           +++++++++++++++++++++++++           ...",
"      ..... ......                                       ++++++++++++++++++++++++++++++        .....",
"      ...                                            +++++++++++++++++++++++++++++++++++       .....",
"                                                   +++++++++++++++++++++++++++++++++++++++     .....",
"                                                 +++++++++++++++++++++++++++++++++++++++++     ...  ",
"                                              ++++++++++++++++++++++++++++++++++++++++++++++        ",
"                                             +++++++++++++++++++++++++++++++++++++++++++++++        ",
"                                          +++++++++++++++++++++++++++++++++++++++++++++++++++       ",
"                       +++++++++++++++@@@++++++++++++++++++++++++++++++++++++++++++++++++++++       ",
"                   +++++++++++++++++++@@@++++++++++++++++++++++++++++++++++++++++++++++++++++       ",
"               ++++++++++++++++++++++@@@@+++++++++++++++++++++++++++++++++++....+++++++++++++       ",
"             ++++++++++++++++++++@@@@@@@+++++++++++++++++++++++++++++++++++++++...+++++++++++       ",
"            +++++++++++++++++++++@@@@@@@+++++++++++++++++++++++++++++++++++.+++#..+++++++++++       ",
"           ++++++++++++++++@@@@++@@@@++++++++++++++++++++++++++++++++++++++.+++#..+++++++++++       ",
"           ++++++++++++++++@@@@++++++++++++++++++++++++++++++++++++++++++++.####.++++++++++++       ",
"           ++++++++++++++++@@@@+++++++++++++++++++++++++++++++++++++++++++++....+++++++++++++       ",
"           +++++++++++++@@@++++++++++++++++++++++++++++++++++++++++++++++++++++++++++++++++++       ",
"           +++++++++@@@+@@@++++++++++++++++++++++++++++++++++++++++++++++++++++++++++++++++++       ",
"             +++++++@@@+@@@++++++++++++++++++++++++++++++++++++++++++++++++++++++++++++++++++       ",
"                   +@@@+++++++++++++++++++++++++++++++++++++++++++++++++++++++++++++++++++++        ",
"                     +++++++++++++++++++++++++++++++++++++++++++++++++++++++++++++++++++++++        ",
"                    ++++++++++++++++++++++++++++++++++++++++++++++++++++++++++++++++++++++++        ",
"                   +++++++++++++++++++++++++++++++++++++++++++++++++++++++++++++++++++++++++++      ",
"...              ++++++++++++++++++++++++++++++++++++++++++++++++++++++++++++++++++++++++++++++     ",
"...              ++++++++++++++++++++++++++++++++++++++++++++++++++++++++++++++++++++++++++++++++++ ",
"...            +++++++++++++++++++++++++++++++++++++++++++++++++++++++++++++++++++++++++++++++++++++",
"               +++++++++++++++++++++++++++++++++++++++++++++++++++++++++++++++++++++++++++++++++++++",
"              ++++++++++++++++++++++++++++++++++++++++++++++++++++++++++++++++++++++++++++++++++++++",
"             +++++++++++++++++++++++++++++++++++++++++++++++++++++++++++++++++++++++++++++++++++++++",
"            ++++++++++++++++++++++++++++++++++++++++++++++++++++++++++++++++++++++++++++++++++++++++",
"            ++++++++++++++++++++++++++++++++++++++++++++++++++++++++++++++++++++++++++++++++++++++++",
"           +++++++++++++++++++++++++++++++++++++++++++++++@@@@@@@@@@++++++++++++++++++++++++++++++++",
"          +++++++++++++++++++++++++++++++++++++++++++++++@@@@@@@@@@@@@++++++++++++++++++++++++++    ",
"         +++++++++++++++++++++++++++++++++++++++++++++@@@@@@@@@@@@@@@@++++++++                      ",
"         +++++++++++++++++++++++++++++++++++++++++++@@@@@@@@@@@@@@@@@@++++++                        ",
"        +++++++++++++++++++++++++++++++++++++++++@@@@@@@@@@@@@@@@@@@@@++++                          ",
"        +++++++++++++++++++++++++++++++++++++++@@@@@@@@@@@@@@@@@@@@@@@+                             ",
"       ++++++++++++++++++++++++++++++++++++++@@@@@@@@@@@@@@@@@@@@@@@+                               ",
"       ++++++++++++++++++++++++++++++++++++@@@@@@@@@@@@@@@@@@@@@@@@                                 ",
"      ++++++++++++++++++++++++++++++++++++@@@@@@@@@@@@@@@@@@@@@@@+                                  ",
"      +++++++++++++++++++++++++++++++++++@@@@@@@@@@@@@@@@@@@@@@+                                    ",
"      +++++++++++++++++++++++++++++++++@@@@@@@@@@@@@@@@@@@@@@+                                      ",
"     +++++++++++++++++++++++++++++++++@@@@@@@@@@@@@@@@@@@@@+                                        ",
"     +++++++++++++++++++++++++++++++@@@@@@@@@@@@@@@@@@@@@@                                          ",
"     ++++++++++++++++++++++++++++++@@@@@@@@@@@@@@@@@@@@+                                            ",
"     ++++++++++++++++++++++++++++@@@@@@@@@@@@@@@@@@@+++                                             ",
"    ++++++++++++++++++++++++++++@@@@@@@@@@@@@@@@@@@+                                                ",
"    +++++++++++++++++++++++++++@@@@@@@@@@@@@@@@@@@                                                  ",
"    ++++++++++++++++++++++++++@@@@@@@@@@@@@@@@@@                                                    ",
"   ++++++++++++++++++++++++++@@@@@@@@@@@@@@@@@+                                                     ",
"   ++++++++++++++++++++++++++@@@@@@@@@@@@@@@+                                                       ",
"  ++++++++++++++++++++++++++@@@@@@@@@@@@@@@+                                                        ",
" +++++++++++++++++++++++++++@@@@@@@@@@@@@+                                                          ",
" ++++++++++++++++++++++++++@@@@@@@@@@@@@+                              .......                      ",
" +++++++++++++++++++++++++@@@@@@@@@@@@@+                              .........                     ",
" +++++++++++++++++++++++++@@@@@@@@@@@@+                             ...........                     ",
" ++++++++++++++++++++++++@@@@@@@@@@@@                ........      ....... .........  .....         ",
" +++++++++++++++++++++++@@@@@@@@@@@@               ..........      ......   ...............         ",
"++++++++++++++++++++++++@@@@@@@@@@+         .................      ....     ...............         ",
"++++++++++++++++++++++++@@@@@@@@@+          ............  ...      ...           ........           ",
"++++++++++++++++++++++++@@@@@@@@+           ..........                                              ",
"+++++++++++++++++++++++@@@@@@@@+                 ....                                               ",
"+++++++++++++++++++++++@@@@@@++                                                                     ",
"+++++++++++++++++++++++@@@@@++                                                                      ",
"+++++++++++++++++++++++@@@@@+                                                                       ",
"+++++++++++++++++++++++@@@@+                                                                        ",
"++++++++++++++++++++++@@@@@+                                                                        ",
"++++++++++++++++++++++@@@@+                                                                         ",
"++++++++++++++++++++++@@@@+                                                                         ",
"++++++++++++++++++++++@@@@+                                                                         ",
" +++++++++++++++++++++@@@+                                                                          ",
" +++++++++++++++++++++@@@+                                                                          ",
" +++++++++++++++++++++@@@+                          ++                                              ",
"  ++++++++++++++++++++@@@+                        +++++                                             ",
"  ++++++++++++++++++++@@@+                     +++++++++                                            ",
"  ++++++++++++++++++++@@@                     ++++++++++                                            ",
"   ++++++++++++++++++++++                   ++++++++++++                                            ",
"   ++++++++++++++++++++++                  ++++++++++++                                             ",
"   ++++++++++++++++++++++               +++++++++++++++                                             ",
"   +++++++++++++++++++++++             +++++++++++++++                                              ",
"   +++++++++++++++++++++++             ++++++++++++++                              @@@              ",
"   ++++++++++++++++++++++++           ++++++++++++++                               @@@              ",
"    +++++++++++++++++++++++++       +++++++++++++++                                @@@              ",
"    +++++++++++++++++++++++++++++++++++++++++++++++                                @@@              ",
"    ++++++++++++++++++++++++++++++++++++++++++++++                                 .......          ",
"     ++++++++++++++++++++++++++++++++++++++++++++             ...                  .........        ",
"      +++++++++++++++++++++++++++++++++++++++++++             ...........          ..........       ",
"        ++++++++++++++++++++++++++++++++++++++++              ............             ......       ",
"        ++++++++++++++++++++++++++++++++++++++++++  +++       ............               .....      ",
"        ++   ++++++++++++++++++++++++++++++++++++++++++               ....                .....     ",
"               ++++++++++++++++++++++++++++++++++++++++                ...                 ......   ",
"                 ++++++++++++++++++++++++++++++++++++++++                                  ......   ",
"                    ++++++++++++++++++++++++++++++++++++++                                  ........",
"                       +++++++++++++++++++++++++++++++++++                                       ...",
"                           +++++++++++++++++++++++++++++++                                       ...",
"                                +++++++++++++++++++++++                                          ..."};
