/* XPM */
static char * sea_xpm[] = {
"100 100 2 1",
" 	c #005AD7",
".	c #E3E6E5",
"                                                                                                    ",
"                                                                                                    ",
"                                                                                                    ",
"                                                                                                    ",
"                                                                          ....                      ",
"                                                                         .....                      ",
"                                                                         .....                      ",
"                                                                         .....        ...           ",
"                                                                                     ....           ",
"                                                                               ... ......           ",
"                                                 .....                         .........            ",
"    ...............                            .......                         ........             ",
"  ..................                          ........                         .......              ",
"  ..................                         .......                           .....                ",
"  .....         ....                       .......                                                  ",
"                 ....                      ......                                                   ",
"                 ....                      ....                                                     ",
"                 ....                                                                               ",
"                                                                                                    ",
"                                                                                                    ",
"                                                                                                    ",
"                                                                                                    ",
"                                                                                                    ",
"                 ....                                                                               ",
"                 .....                                                                              ",
"               .......                                                                              ",
"              .........                                                                             ",
"             ...........                     ...                                                    ",
"            ......  ....                  .......                                                   ",
"           ......    ....               .........                                                   ",
"          ......     .....            ...........                                                   ",
"         ......       ....         .......... ....                                     .....        ",
"         ....          ....      .........    ....                                   .......        ",
"        .....          .....   .........      ....                                  ........        ",
"        ....            .............                                              .......          ",
"        ....             ..........                                               .....             ",
"        ...              ........                                                .....              ",
"        ...                ....                                                  ....               ",
"                                                                                 ....               ",
"                                                                                .....               ",
"                                                                               ......               ",
"                                                                ......       ........               ",
"                                                               ..........  ........                 ",
"                                                             ....................                   ",
"                                                            ...................                     ",
"                                                            .....     ........                      ",
"                                                            ....                                    ",
"                                                            ...                                     ",
"                                                                                                    ",
"                                                                                                    ",
"                                                                                                    ",
"         ....                                                                                       ",
"        .....                                                                                       ",
"        ......                                                                                      ",
"       .........                                                                                    ",
"      ............                                                                                  ",
"      .... .......                                                                                  ",
"      ....   .....                                                                                  ",
"      ...                                                                                           ",
"                                                                                                    ",
"                                                                                                    ",
"                                                                                               .....",
"                                     ......                                                  .......",
"                                  ..........                                                ........",
"                                 ...........                                               ....... .",
"                                 ...... ....                                              ......    ",
"                                 ....    ...                                              .....     ",
"                                 ...     ....                                             ....      ",
"                                         ....      .........                              ...       ",
"                                         ..... .............                                        ",
"                                          ..................                                        ",
"..........                                ...........    ......                                     ",
"............                               ......        ......                                     ",
"............                                             ......                                     ",
"...    .....                                                                                        ",
"         ...                                                                                        ",
"                                ......                                                              ",
"                             .........                                                              ",
"                          ............                                                              ",
"                        .......... ...                                                              ",
"                      .........    ...                                                              ",
"                    ........       ...                                                              ",
"                  ........        ....            ....                                              ",
"                ........          ....     ...........                                              ",
"              ........            ...   ..............                                              ",
"             .......              ... .................                                             ",
"            ......                ............     ....                                             ",
"            .....                 ........         ....                                    ...      ",
"            ....                  ......            ...                                    ...      ",
"                                  ....                                                     ...      ",
"                                                                        ....                        ",
"                                                                ....   .....                        ",
"                                                                ..... ......                        ",
"                                                                ............                        ",
"                                                                 .........                          ",
"                                                                  .......                           ",
"                                                                                                    ",
"                                                                                                    ",
"                                                                                                    ",
"                                                                                                    "};
