/* XPM */
static char * unlocked_exit_xpm[] = {
"100 100 4 1",
" 	c #010B0A",
".	c #460B0A",
"+	c #0007C5",
"@	c #FFFFFF",
"                                                               ...  .....+++++++++++++++++++++++++++",
"                                                               .... ..........++++++++++++++++++++++",
"                                                               ...................++++++++++++++++++",
"                                                               ...........................++++++++++",
"                                                               .................................++++",
"                                                               .....................................",
"   +++++++++++++++++++++++++++++++++++++++++++++++++++++++++   .....................................",
"   +++++++++++++++++++++++++++++++++++++++++++++++++++++++++   .....................................",
"   +++++++++++++++++++++++++++++++++++++++++++++++++++++++++   .....................................",
"   +++++++++++++++++++++++++++++++++++++++++++++++++++++++++   .....................................",
"   +++++++++++++++++++++++++++++++++++++++++++++++++++++++++   .....................................",
"   +++++++++++++++++++++++++++++++++++++++++++++++++++++++++    ....................................",
"   +++++++++++++++++++++++++++++++++++++++++++++++++++++++++    ....................................",
"   ++++++++++++++++++++++++++++++++++++++++++++++++++++@@@++   .....................................",
"   ++++++++++++++++++++++++++++++++++++++++++++++++++++@@@++   .....................................",
"   ++++++++++++++++++++++++++++++++++++++++++++++++++++@@@++   .....................................",
"   ++++++++++++++++++++++++++++++++++++++++++++++++++++@@@++   .....................................",
"   +++++++++++++++++++++++++++++++++++++++++++++++++++++++++   .....................................",
"   +++++++++++++++++++++++++++++++++++++++++++++++++++++++++   .....................................",
"   +++++++++++++++++++++++++++@@@@++++++++++++++++++++++++++   .....................................",
"    ++++++++++++++++++++++++@@@@@@++++++++++++++++++++++++++   .....................................",
"    +++++++++++++++++@@@@@@@@@@@@@++++++++++++++++++++++++++   .....................................",
"    ++++++++++++++++@@@@@@@@@@@@@+++++++++++++++++++++++++++   .....................................",
"    ++++++++++++++++@@@@@@@@@@@+++++++++++++++++++++++++++++     ...................................",
"    ++++++++++++++++@@@@++++++++++++++++++++++++++++++++++++     ...................................",
"    +++++++++++++++++++++++++++++++++++++++++++++++++++++++      ...................................",
"    +++++++++++++++++++++++++++++++++++++++++++++++++++++++      ...................................",
"    +++++++++++++++++++++++++++++++++++++++++++++++++++++++      ...................................",
"    +++++++++++++++++++++++++++++++++++++++++++++++++++++++      ...................................",
"    +++++++++++++++++++++++++++++++++++++++++++++++++++++++     ....................................",
"    +++++++++++++++++++++++++++++++++++++++++++++++++++++++     ....................................",
"    +++++++++++++++++++++++++++++++++++++++++++++++++++++++     ....................................",
"    +++++++++++++++++++++++++++++++++++++++++++++++++++++++     ....................................",
"    +++++++++++++++++++++++++++++++++++++++++++++++++++++++     ....................................",
"    +++++++++++++++++++++++++++++++++++++++++++++++++++++++     ....................................",
"    +++++++++++++++++++++++++++++++++++++++++++++++++++++++     ....................................",
"    +++++++++++++++++++++++++++++++++++++++++++++++++++++++     ....................................",
"    +++++++++++++++++++++++++++++++++++++++++++++++++++++++    .....................................",
"    +++++++++++++++++++++++++++++++++++++++++++++++++++++++    .....................................",
"    +++++++++++++++++++++++++++++++++++++++++++++++++++++++    .....................................",
"    +++++++++++++++++++++++++++++++++++++++++++++++++++++++    .....................................",
"    +++++++++++++++++++++++++++++++++++++++++++++++++++++++    .....................................",
"    +++++++++++++++++++++++++++++++++++++++++++++++++++++++    .....................................",
"    +++++++++++++++++++++++++++++++++++++++++++++++++++++++    .....................................",
"    +++++++++++++++++++++++++++++++++++++++++++++++++++++++    .....................................",
"    ++++++++++++++++++++++++@@@@+++++++++++++++++++++++++++    .....................................",
"    ++++++++++++++++@@@@+@@@@@@@@@+++++++++++++++++++++++++    .....................................",
"    +++++++++++++++@@@@@@@@@@@@@@@+++++++++++++++++++++++++    .....................................",
"    ++++++++++++++@@@@@@@@@@@@@@@@+++++++++++++++++++++++++    .....................................",
"    +++++++++++++@@@@@@@@@@@+++++++++++++++++++++++++++++++    .....................................",
"    +++++++++++++@@@@@+++++++++++++++++++++++++++++++++++++    .....................................",
"    +++++++++++++@@@@++++++++++++++++++++++++++++++++++++++    .....................................",
"    +++++++++++++@@@+++++++++++++++++++++++++++++++++++++++    .....................................",
"    +++++++++++++@@@+++++++++++++++++++++++++++++++++++++++    .....................................",
"    +++++++++++++++++++++++++++++++++++++++++++++++++++++++    .....................................",
"    +++++++++++++++++++++++++++++++++++++++++++++++++++++++    .....................................",
"    +++++++++++++++++++++++++++++++++++++++++++++++++++++++    .....................................",
"    +++++++++++++++++++++++++++++++++++++++++++++++++++++++    .....................................",
"    +++++++++++++++++++++++++++++++++++++++++++++++++++++++    .....................................",
"    +++++++++++++++++++++++++++++++++++++++++++++++++++++++    .....................................",
"    +++++++++++++++++++++++++++++++++++++++++++++++++++++++    .....................................",
"   ++++++++++++++++++++++++++++++++++++++++++++++++++++++++    .....................................",
"   ++++++++++++++++++++++++++++++++++++++++++++++++++++++++    .....................................",
"   ++++++++++++++++++++++++++++++++++++++++++++++++++++++++    .....................................",
"   ++++++++++++++++++++++++++++++++++++++++++++++++++++++++    .....................................",
"   ++++++++++++++++++++@@@.++++++++++++++++++++++++++++++++    .....................................",
"   ++++++++++++++++++++@@@.++++++++++++++++++++++++++++++++    .....................................",
"   ++++++++++++++++++++@@@@@@@+++++++++++++++++++++++++++++    .....................................",
"   ++++++++++++++++++++@@@@@@@+++++++++++++++++++++++++++++    .....................................",
"   ++++++++++++++++++++..@@@@@+++++++++++++++++++++++++++++    .....................................",
"   +++++++++++++++++++++..@@@@+++++++++++++++++++++++++++++    .....................................",
"   +++++++++++++++++++++++@@@++++++++++++++++++++++++++++++    .....................................",
"   ++++++++++++++++++++++++++++++++++++++++++++++++++++++++    .....................................",
"   ++++++++++++++++++++++++++++++++++++++++++++++++++++++++    .....................................",
"   ++++++++++++++++++++++++++++++++++++++++++++++++++++++++    .....................................",
"   ++++++++++++++++++++++++++++++++++++++++++++++++++++++++    .....................................",
"   ++++++++++++++++++++++++++++++++++++++++++++++++++++++++   ......................................",
"   ++++++++++++++++++++++++++++++++++++++++++++++++++++++++   ......................................",
"   ++++++++++++++++++++++++++++++++++++++++++++++++++++++++   ......................................",
"   ++++++++++++++++++++++++++++++++++++++++++++++++++++++++   ......................................",
"   ++++++++++++++++++++++++++++++++++++++++++++++++++++++++   ......................................",
"   ++++++++++++++++++++++++++++++++++++++++++++++++@@@+++++   ......................................",
"   ++++++++++++++++++++++++++++++++++++++++++++++++@@@+++++   ......................................",
"   ++++++++++++++++++++++++++++++++++++++++++++++++@@@+++++   ......................................",
"   ++++++++++++++++++++++++++++++++++++++++++++++++@@@+++++   ......................................",
"   +++++@@@@+++++++++++++++++++++++++++++++++++++++++++++++   ......................................",
"   +++++@@@@+++++++++++++++++++++++++++++++++++++++++++++++   ......................................",
"   +++++@@@@+++++++++++++++++++++++++++++++++++++++++++++++   ......................................",
"   ++++++++++++++++++++++++++++++++++++++++++++++++++++++++   ......................................",
"    +++++++++++++++++++++++++++++++++++++++++++++++++++++++   ......................................",
"    +++++++++++++++++++++++++++++++++++++++++++++++++++++++   ......................................",
"........+++++++++++++++++++++++++++++++++++++++++++++++++++  .......................................",
"................++++++++++++++............+++++++++++++++++  .......................................",
"....................................................................................................",
"....................................................................................................",
"....................................................................................................",
"++++++++............................................................................................",
"+++++++++++++++++++++++++++++++++++++++++++++++++++++++++++++++++++++...............................",
"++++++++++++++++++++++++++++++++++++++++++++++++++++++++++++++++++++++++++++........................",
"++++++++++++++++++++++++++++++++++++++++++++++++++++++++++++++++++++++++++++++++++.................."};
