/* XPM */
static char * coral_reef_xpm[] = {
"100 100 8 1",
" 	c #005AD7",
".	c #E3AD04",
"+	c #000E0A",
"@	c #440E0B",
"#	c #6AB812",
"$	c #3F9F19",
"%	c #5FB419",
"&	c #6F272B",
"              ......              .....         .................................................   ",
"              ......            ....... ............................................................",
"             ......            .............................      ..................................",
"             .......................................................................................",
"....................................................................................................",
"....................................................................................................",
"....................................................................................................",
"....+++..@@@........................................................................................",
"....+++..@@@...................+++..................................................................",
"....+++.+++@...................+++..................................................................",
"........+++@...................+++........................................@@@.......................",
"........+++..................................@@@..........................@@@..........@@@..........",
".............................................@@@..........................@@@..........@@@..........",
".............................................@@@.......................................@@@..........",
"....................................................................................................",
"........................................................................@@@.........................",
"........................................................................@@@.........................",
"........................................................................@@@...................@@@...",
".................................####..........................+++......@@@...................@@@@..",
".........................$$$$$$$$$$$####.......###.....####....+++............................@@@@..",
"....................$$$$$$$$$$$$$$$$$$$$#.....####....#####....+++............................@@@@..",
"...................#$$$$$$$$$$$$$$$$$$$$############..#####.........................................",
"...............$$$$$$$$$$$$$#####$$$$$$$############.######.........................................",
"..............$$$$$$$$$####################################.#####...................................",
"..............$$$$$$$$$##########################################...................................",
"........$$$$$$$$$$$$$%#############################################.................................",
"........$$$$$$$$$#$$$%#############################################...........@@@...................",
"........$$$$$$$$$#$$$%######################################################..@@@...................",
"........$$$#############################$$$$$$##############################..@@@.......@@@@........",
". .....$$$$########################$$$$$$$$$$$##############################............@@@@........",
".......$$$$#######################$$$$$$$$$$$$#############################.............@@@@........",
"......$$$$$#######################$$$$$$$$######@######################.............................",
".....$$$$$########################$$$$##########$$$$####################............................",
"....$$$$$$########################$$$$####&#####$$$$$###$$$$###############.........................",
"....$$$$$#################.####..$$$$$###&######$$$$$###$$$$$$$$###########.........................",
"....$$$$#################.......$$$$$$##########@$$$$###$$$$$$$$###########.........................",
"....$$$#############.###........$$$$$###########$$$$$####$$$$$$$#.#########.........................",
"....$$$#############............$$$$$##########$$$$$######$$$$$$$$$########.........................",
"...$$$$############.............$$$$$#########$$$$$$######...$$$$$$#########........................",
"...$$$$############............$$$$$$#########$$$$$$#######..$$$$$$#########........................",
"...$$$$############...........$$$$$$##########$$$$$$#######.....$$$$$#######........................",
"....###############...........$$$$$##########@$$$$$$#######.....$$$$$#######........................",
"....##############............$$$$###########@@@@$$$##########..$$$$$#######........................",
"....############.............$$$$$###########@@@@$$$##########...$$$$$######...................@@@..",
"....########.................$$$$$##########@@@@@$$$##########...$$$$$$###.........@@@@.......@@@@..",
".....######.................$$$$$############@@@@$$$##########...$$$$$$###.........@@@@.......@@@@..",
".....#####..................$$$$$############@@@@$$$##########.....$$$$###.........@@@@.......@@@@..",
".....####...................$$$$$############@@@@$$$$#########.....$$$$###..........................",
".....####...................$$$$$###########@@@@@$$$$$#######.....$$$$$###..........................",
".....###...................$$$$$$###########@@@@@$$$$$######.....$$$$$####..........................",
"...........................$$$$$$##########@@@@@@@$$$$$######...$$$$$$####..........................",
"...........................$$$$$##########@@@@@@@@@$$$$######...$$$$$#####..........................",
"...........................$$$############@@@@@@@@@$$$$$#####...$$$$$#####..........................",
"...........................$$$$##########@@@@@@@@@..$$$$$$###...$$$$$#####..........................",
"...........................$$$$#########.@@@@@@@@@..$$$$$$###...$$$$$####............@@@............",
".............@@@...........$$$$$#####....@@@@@@@@@...$$$$$###..$$$$$$###.............@@@............",
".............@@@............$$$$####.....@@@@@@@@@.....$$$###..$$$$$###..............@@@............",
".............@@@............$$$$####.....@@@@@@@@@.....$$$$$...$$$$$#...............................",
"............................#$$$#........@@@@@@@@@.....$$$$$...$$$$$................................",
"............................####.........@@@@@@@@@.....$$$$$...$$$$$................................",
"............................####.........@@@@@@@@@.....$$$$$........................................",
"............................###..........@@@@@@@@@......$$$$........................................",
".........................................@@@@@@@@@......$$$$........................................",
".........................................@@@@@@@@@..........................................@@@@....",
".........................................@@@@@@@@@.........................................@@@@@....",
".........................................@@@@@@@@@....................+++.................@@@@@@....",
".........................................@@@@@@@@@....................+++.................@@@@@.....",
".........................................@@@@@@@@@....................+++.................@@@@......",
".........................................@@@@@@@@@..................................................",
"......+++@@@............@@@.............@@@@@@@@@@..................................................",
"......+++@@@............@@@............@@@@@@@@@@@..................................................",
"......+++@@@............@@@............@@@@@@@@@@@................@@@...............................",
".......................................@@@@@@@@@@@................@@@..............@@@..............",
".......................................@@@@@@@@@@@................@@@..............@@@..............",
".......................................@@@@@@@@@@@.................................@@@..............",
".......................................@@@@@@@@@@@..................................................",
".......................@@@...........@@@@@@@@@@@@@........................................@@@.......",
".......................@@@..........@@@@@@@@@@@@@@@@@.....................................@@@.......",
".......................@@@..........@@@@@@@@@@@@@@@@@.....................................@@@.......",
". ..................................@@@@@@@@@@@@@@@@@@..............................................",
". .........+++......................@@@@@@@@@@@@@@@@@@..............................................",
" ..........+++......................@@@@@@@@@@@@@@@@@@..............................................",
" ..........+++........................@@@@@@@@@@@@@@@@@..........@@@................................",
"..................................@@@@@@@@@@@@@@@@@@@@@..........@@@................+++.............",
"..................................@@@@@@@@@@@@@@@@@@@@@..........@@@................+++.............",
"..................................@@@@@@@@@@@@@@@@@@@@..............................+++.............",
"..................................@@@@@@@@@@@@@@@@@@@@..............................................",
"..................................@@@@@@@@@@@@@@@@@@@@..............................................",
"..................................@@@@.@@@@.@@@@@@@@@@..............................................",
".......................................@@@@.@@@@@@@@@@..............................................",
"............................................@@@.@@@@................................................",
"...............@@@.........+++..............@@@........@@@..........................................",
"...............@@@.........+++..............@@@........@@@..........................................",
"...............@@@.........+++.........................@@@.......................+++................",
".................................................................................+++................",
"...........................................................................@@@...+++................",
"...........................................................................@@@......................",
"..........@@@..............................@@@.............................@@@......................",
"..........@@@..............................@@@......................................................",
"..........@@@..............................@@@......................................................"};
